# xmcd
#
# Track frame offsets: 
#        150
#        12399
#        21702
#        32731
#        41838
#        51574
#        62820
#        75210
#        85436
#        96614
#        105905
#        115735
#        126531
#        138988
#        150354
#        160164
#        171018
#        183691
#        195647
#        206110
#        216353
#        228019
#        238954
#        253192
#        264305
#        274178
#        287893
#        302973
#
# Disc length: 4207 seconds
#
# Revision: 0
# Processed by: cddbd v1.5.1PL0 Copyright (c) Steve Scherf et al.
# Submitted via: ExactAudioCopy v0.95a5
#
DISCID=a4106d1c
DTITLE=Various Artist - The 'D' Singles Volume 4 - Disc 3
DYEAR=2002
DGENRE=Country
TTITLE0=Slim Free - Scratchin´ Off
TTITLE1=Slim Free - For Old Times Sake
TTITLE2=Frank James - Memories Will Never Fade
TTITLE3=Frank James - Broken Vows
TTITLE4=Earl Scott - Tonight´s The Night For Love
TTITLE5=Earl Scott - Mean Old World
TTITLE6=Richie Johnson - Grand Ole Opry In The Sky
TTITLE7=Cousin Louie - I´m Gonna Tell
TTITLE8=Link Davis - Come Dance With Me
TTITLE9=Link Davis - Five Miles From Town
TTITLE10=Al Dean - I Need NO Chains
TTITLE11=Al Dean - A Girl At The Bar
TTITLE12=Carl Sauceman - Love Divided By Three
TTITLE13=Carl Sauceman - A Lonely Waltz
TTITLE14=Carl Sauceman - Grandpa Rocks
TTITLE15=Earl Scott - I´m Feeling No Pain
TTITLE16=Earl Scott - Life To Go
TTITLE17=Johnny Nelms - Picture In My Heart
TTITLE18=Johnny Nelms - Half Past A Heartache
TTITLE19=Jack Lionel - Ain´t Go No Sense At All
TTITLE20=Jack Lionel - Big Blue Diamonds
TTITLE21=Richie Johnson - Broken Valentine
TTITLE22=Richie Johnson - Grand Ole Opry In The Sky (2)
TTITLE23=Cousin Louie - Opry Star Time
TTITLE24=Cousin Louie - Easy Payments
TTITLE25=Johnny Appleseed - My Love
TTITLE26=Johnny Appleseed - Got A Gun Better Travel
TTITLE27=Earl Scott - Lonesome Whistle
EXTD=
EXTT0=
EXTT1=
EXTT2=
EXTT3=
EXTT4=
EXTT5=
EXTT6=
EXTT7=
EXTT8=
EXTT9=
EXTT10=
EXTT11=
EXTT12=
EXTT13=
EXTT14=
EXTT15=
EXTT16=
EXTT17=
EXTT18=
EXTT19=
EXTT20=
EXTT21=
EXTT22=
EXTT23=
EXTT24=
EXTT25=
EXTT26=
EXTT27=
PLAYORDER=
